<svg xmlns="http://www.w3.org/2000/svg" xmlns:xlink="http://www.w3.org/1999/xlink" width="500" zoomAndPan="magnify" viewBox="0 0 375 374.999991" height="500" preserveAspectRatio="xMidYMid meet" version="1.0"><defs><g/></defs><g fill="#ffffff" fill-opacity="1"><g transform="translate(85.528117, 251.749992)"><g><path d="M 5.640625 -10.5 C 6.984375 -10.5 8.035156 -10.175781 8.796875 -9.53125 C 9.554688 -8.894531 9.9375 -8.019531 9.9375 -6.90625 C 9.9375 -5.78125 9.554688 -4.898438 8.796875 -4.265625 C 8.035156 -3.628906 6.984375 -3.3125 5.640625 -3.3125 L 2.8125 -3.3125 L 2.8125 0 L 1.703125 0 L 1.703125 -10.5 Z M 5.609375 -4.296875 C 6.648438 -4.296875 7.441406 -4.519531 7.984375 -4.96875 C 8.535156 -5.425781 8.8125 -6.070312 8.8125 -6.90625 C 8.8125 -7.75 8.535156 -8.398438 7.984375 -8.859375 C 7.441406 -9.316406 6.648438 -9.546875 5.609375 -9.546875 L 2.8125 -9.546875 L 2.8125 -4.296875 Z M 5.609375 -4.296875 "/></g></g></g><g fill="#ffffff" fill-opacity="1"><g transform="translate(95.62311, 251.749992)"><g><path d="M 8.296875 -2.8125 L 2.4375 -2.8125 L 1.1875 0 L 0.03125 0 L 4.828125 -10.5 L 5.921875 -10.5 L 10.71875 0 L 9.5625 0 Z M 7.890625 -3.703125 L 5.375 -9.34375 L 2.84375 -3.703125 Z M 7.890625 -3.703125 "/></g></g></g><g fill="#ffffff" fill-opacity="1"><g transform="translate(105.853098, 251.749992)"><g><path d="M 3.75 -9.546875 L 0.0625 -9.546875 L 0.0625 -10.5 L 8.546875 -10.5 L 8.546875 -9.546875 L 4.859375 -9.546875 L 4.859375 0 L 3.75 0 Z M 3.75 -9.546875 "/></g></g></g><g fill="#ffffff" fill-opacity="1"><g transform="translate(114.463094, 251.749992)"><g><path d="M 1.703125 -10.5 L 2.8125 -10.5 L 2.8125 0 L 1.703125 0 Z M 1.703125 -10.5 "/></g></g></g><g fill="#ffffff" fill-opacity="1"><g transform="translate(118.993089, 251.749992)"><g><path d="M 4.609375 0.09375 C 3.828125 0.09375 3.078125 -0.03125 2.359375 -0.28125 C 1.648438 -0.53125 1.097656 -0.863281 0.703125 -1.28125 L 1.140625 -2.125 C 1.515625 -1.75 2.015625 -1.441406 2.640625 -1.203125 C 3.273438 -0.972656 3.929688 -0.859375 4.609375 -0.859375 C 5.546875 -0.859375 6.25 -1.03125 6.71875 -1.375 C 7.1875 -1.71875 7.421875 -2.164062 7.421875 -2.71875 C 7.421875 -3.132812 7.289062 -3.46875 7.03125 -3.71875 C 6.78125 -3.96875 6.46875 -4.160156 6.09375 -4.296875 C 5.726562 -4.429688 5.21875 -4.578125 4.5625 -4.734375 C 3.769531 -4.941406 3.140625 -5.132812 2.671875 -5.3125 C 2.203125 -5.5 1.796875 -5.78125 1.453125 -6.15625 C 1.117188 -6.539062 0.953125 -7.054688 0.953125 -7.703125 C 0.953125 -8.234375 1.09375 -8.71875 1.375 -9.15625 C 1.65625 -9.59375 2.085938 -9.941406 2.671875 -10.203125 C 3.253906 -10.460938 3.972656 -10.59375 4.828125 -10.59375 C 5.429688 -10.59375 6.019531 -10.507812 6.59375 -10.34375 C 7.164062 -10.175781 7.660156 -9.945312 8.078125 -9.65625 L 7.703125 -8.78125 C 7.265625 -9.0625 6.796875 -9.273438 6.296875 -9.421875 C 5.796875 -9.566406 5.304688 -9.640625 4.828125 -9.640625 C 3.910156 -9.640625 3.21875 -9.460938 2.75 -9.109375 C 2.289062 -8.753906 2.0625 -8.296875 2.0625 -7.734375 C 2.0625 -7.316406 2.1875 -6.976562 2.4375 -6.71875 C 2.6875 -6.46875 3.003906 -6.273438 3.390625 -6.140625 C 3.773438 -6.003906 4.296875 -5.859375 4.953125 -5.703125 C 5.722656 -5.515625 6.34375 -5.328125 6.8125 -5.140625 C 7.289062 -4.953125 7.691406 -4.671875 8.015625 -4.296875 C 8.347656 -3.921875 8.515625 -3.414062 8.515625 -2.78125 C 8.515625 -2.25 8.375 -1.765625 8.09375 -1.328125 C 7.8125 -0.890625 7.375 -0.539062 6.78125 -0.28125 C 6.1875 -0.03125 5.460938 0.09375 4.609375 0.09375 Z M 4.609375 0.09375 "/></g></g></g><g fill="#ffffff" fill-opacity="1"><g transform="translate(128.218079, 251.749992)"><g><path d="M 4.609375 0.09375 C 3.828125 0.09375 3.078125 -0.03125 2.359375 -0.28125 C 1.648438 -0.53125 1.097656 -0.863281 0.703125 -1.28125 L 1.140625 -2.125 C 1.515625 -1.75 2.015625 -1.441406 2.640625 -1.203125 C 3.273438 -0.972656 3.929688 -0.859375 4.609375 -0.859375 C 5.546875 -0.859375 6.25 -1.03125 6.71875 -1.375 C 7.1875 -1.71875 7.421875 -2.164062 7.421875 -2.71875 C 7.421875 -3.132812 7.289062 -3.46875 7.03125 -3.71875 C 6.78125 -3.96875 6.46875 -4.160156 6.09375 -4.296875 C 5.726562 -4.429688 5.21875 -4.578125 4.5625 -4.734375 C 3.769531 -4.941406 3.140625 -5.132812 2.671875 -5.3125 C 2.203125 -5.5 1.796875 -5.78125 1.453125 -6.15625 C 1.117188 -6.539062 0.953125 -7.054688 0.953125 -7.703125 C 0.953125 -8.234375 1.09375 -8.71875 1.375 -9.15625 C 1.65625 -9.59375 2.085938 -9.941406 2.671875 -10.203125 C 3.253906 -10.460938 3.972656 -10.59375 4.828125 -10.59375 C 5.429688 -10.59375 6.019531 -10.507812 6.59375 -10.34375 C 7.164062 -10.175781 7.660156 -9.945312 8.078125 -9.65625 L 7.703125 -8.78125 C 7.265625 -9.0625 6.796875 -9.273438 6.296875 -9.421875 C 5.796875 -9.566406 5.304688 -9.640625 4.828125 -9.640625 C 3.910156 -9.640625 3.21875 -9.460938 2.75 -9.109375 C 2.289062 -8.753906 2.0625 -8.296875 2.0625 -7.734375 C 2.0625 -7.316406 2.1875 -6.976562 2.4375 -6.71875 C 2.6875 -6.46875 3.003906 -6.273438 3.390625 -6.140625 C 3.773438 -6.003906 4.296875 -5.859375 4.953125 -5.703125 C 5.722656 -5.515625 6.34375 -5.328125 6.8125 -5.140625 C 7.289062 -4.953125 7.691406 -4.671875 8.015625 -4.296875 C 8.347656 -3.921875 8.515625 -3.414062 8.515625 -2.78125 C 8.515625 -2.25 8.375 -1.765625 8.09375 -1.328125 C 7.8125 -0.890625 7.375 -0.539062 6.78125 -0.28125 C 6.1875 -0.03125 5.460938 0.09375 4.609375 0.09375 Z M 4.609375 0.09375 "/></g></g></g><g fill="#ffffff" fill-opacity="1"><g transform="translate(137.443069, 251.749992)"><g><path d="M 9.140625 -0.953125 L 9.140625 0 L 1.703125 0 L 1.703125 -10.5 L 8.90625 -10.5 L 8.90625 -9.546875 L 2.8125 -9.546875 L 2.8125 -5.8125 L 8.25 -5.8125 L 8.25 -4.859375 L 2.8125 -4.859375 L 2.8125 -0.953125 Z M 9.140625 -0.953125 "/></g></g></g><g fill="#ffffff" fill-opacity="1"><g transform="translate(147.478061, 251.749992)"><g><path d="M 8.875 0 L 6.484375 -3.375 C 6.210938 -3.34375 5.929688 -3.328125 5.640625 -3.328125 L 2.8125 -3.328125 L 2.8125 0 L 1.703125 0 L 1.703125 -10.5 L 5.640625 -10.5 C 6.984375 -10.5 8.035156 -10.175781 8.796875 -9.53125 C 9.554688 -8.894531 9.9375 -8.019531 9.9375 -6.90625 C 9.9375 -6.082031 9.726562 -5.382812 9.3125 -4.8125 C 8.894531 -4.25 8.300781 -3.84375 7.53125 -3.59375 L 10.09375 0 Z M 5.609375 -4.28125 C 6.648438 -4.28125 7.441406 -4.507812 7.984375 -4.96875 C 8.535156 -5.425781 8.8125 -6.070312 8.8125 -6.90625 C 8.8125 -7.75 8.535156 -8.398438 7.984375 -8.859375 C 7.441406 -9.316406 6.648438 -9.546875 5.609375 -9.546875 L 2.8125 -9.546875 L 2.8125 -4.28125 Z M 5.609375 -4.28125 "/></g></g></g><g fill="#ffffff" fill-opacity="1"><g transform="translate(158.323053, 251.749992)"><g><path d="M 1.703125 -10.5 L 2.8125 -10.5 L 2.8125 0 L 1.703125 0 Z M 1.703125 -10.5 "/></g></g></g><g fill="#ffffff" fill-opacity="1"><g transform="translate(162.853048, 251.749992)"><g><path d="M 9.140625 -0.953125 L 9.140625 0 L 1.703125 0 L 1.703125 -10.5 L 8.90625 -10.5 L 8.90625 -9.546875 L 2.8125 -9.546875 L 2.8125 -5.8125 L 8.25 -5.8125 L 8.25 -4.859375 L 2.8125 -4.859375 L 2.8125 -0.953125 Z M 9.140625 -0.953125 "/></g></g></g><g fill="#ffffff" fill-opacity="1"><g transform="translate(172.88804, 251.749992)"><g/></g></g><g fill="#ffffff" fill-opacity="1"><g transform="translate(176.818032, 251.749992)"><g><path d="M 9.21875 0.171875 L 7.765625 -1.328125 C 6.878906 -0.378906 5.710938 0.09375 4.265625 0.09375 C 3.578125 0.09375 2.96875 -0.015625 2.4375 -0.234375 C 1.90625 -0.460938 1.488281 -0.78125 1.1875 -1.1875 C 0.882812 -1.59375 0.734375 -2.054688 0.734375 -2.578125 C 0.734375 -3.210938 0.929688 -3.78125 1.328125 -4.28125 C 1.734375 -4.78125 2.414062 -5.300781 3.375 -5.84375 C 2.875 -6.363281 2.53125 -6.804688 2.34375 -7.171875 C 2.15625 -7.535156 2.0625 -7.925781 2.0625 -8.34375 C 2.0625 -9.007812 2.300781 -9.546875 2.78125 -9.953125 C 3.257812 -10.367188 3.898438 -10.578125 4.703125 -10.578125 C 5.453125 -10.578125 6.046875 -10.390625 6.484375 -10.015625 C 6.929688 -9.648438 7.15625 -9.140625 7.15625 -8.484375 C 7.15625 -7.960938 6.976562 -7.492188 6.625 -7.078125 C 6.28125 -6.671875 5.675781 -6.21875 4.8125 -5.71875 L 7.6875 -2.75 C 8.007812 -3.3125 8.25 -3.984375 8.40625 -4.765625 L 9.265625 -4.5 C 9.078125 -3.5625 8.769531 -2.753906 8.34375 -2.078125 L 9.84375 -0.546875 Z M 4.703125 -9.78125 C 4.191406 -9.78125 3.785156 -9.648438 3.484375 -9.390625 C 3.191406 -9.128906 3.046875 -8.785156 3.046875 -8.359375 C 3.046875 -8.046875 3.125 -7.75 3.28125 -7.46875 C 3.445312 -7.1875 3.765625 -6.804688 4.234375 -6.328125 C 4.992188 -6.765625 5.515625 -7.140625 5.796875 -7.453125 C 6.085938 -7.765625 6.234375 -8.101562 6.234375 -8.46875 C 6.234375 -8.875 6.097656 -9.191406 5.828125 -9.421875 C 5.566406 -9.660156 5.191406 -9.78125 4.703125 -9.78125 Z M 4.3125 -0.796875 C 5.476562 -0.796875 6.421875 -1.191406 7.140625 -1.984375 L 3.96875 -5.234375 C 3.144531 -4.765625 2.570312 -4.335938 2.25 -3.953125 C 1.9375 -3.578125 1.78125 -3.15625 1.78125 -2.6875 C 1.78125 -2.113281 2.015625 -1.65625 2.484375 -1.3125 C 2.953125 -0.96875 3.5625 -0.796875 4.3125 -0.796875 Z M 4.3125 -0.796875 "/></g></g></g><g fill="#ffffff" fill-opacity="1"><g transform="translate(186.853024, 251.749992)"><g/></g></g><g fill="#ffffff" fill-opacity="1"><g transform="translate(190.783016, 251.749992)"><g><path d="M 8.328125 -5.421875 C 9.015625 -5.265625 9.546875 -4.960938 9.921875 -4.515625 C 10.296875 -4.078125 10.484375 -3.507812 10.484375 -2.8125 C 10.484375 -1.90625 10.148438 -1.207031 9.484375 -0.71875 C 8.816406 -0.238281 7.835938 0 6.546875 0 L 1.703125 0 L 1.703125 -10.5 L 6.234375 -10.5 C 7.410156 -10.5 8.320312 -10.265625 8.96875 -9.796875 C 9.613281 -9.328125 9.9375 -8.660156 9.9375 -7.796875 C 9.9375 -7.222656 9.789062 -6.734375 9.5 -6.328125 C 9.21875 -5.921875 8.828125 -5.617188 8.328125 -5.421875 Z M 2.8125 -9.578125 L 2.8125 -5.78125 L 6.171875 -5.78125 C 7.015625 -5.78125 7.664062 -5.941406 8.125 -6.265625 C 8.582031 -6.585938 8.8125 -7.0625 8.8125 -7.6875 C 8.8125 -8.300781 8.582031 -8.769531 8.125 -9.09375 C 7.664062 -9.414062 7.015625 -9.578125 6.171875 -9.578125 Z M 6.53125 -0.921875 C 7.46875 -0.921875 8.175781 -1.078125 8.65625 -1.390625 C 9.132812 -1.710938 9.375 -2.210938 9.375 -2.890625 C 9.375 -4.203125 8.425781 -4.859375 6.53125 -4.859375 L 2.8125 -4.859375 L 2.8125 -0.921875 Z M 6.53125 -0.921875 "/></g></g></g><g fill="#ffffff" fill-opacity="1"><g transform="translate(202.093005, 251.749992)"><g><path d="M 8.296875 -2.8125 L 2.4375 -2.8125 L 1.1875 0 L 0.03125 0 L 4.828125 -10.5 L 5.921875 -10.5 L 10.71875 0 L 9.5625 0 Z M 7.890625 -3.703125 L 5.375 -9.34375 L 2.84375 -3.703125 Z M 7.890625 -3.703125 "/></g></g></g><g fill="#ffffff" fill-opacity="1"><g transform="translate(212.84799, 251.749992)"><g><path d="M 4.96875 -4.9375 L 2.8125 -2.765625 L 2.8125 0 L 1.703125 0 L 1.703125 -10.5 L 2.8125 -10.5 L 2.8125 -4.15625 L 8.984375 -10.5 L 10.265625 -10.5 L 5.71875 -5.75 L 10.578125 0 L 9.25 0 Z M 4.96875 -4.9375 "/></g></g></g><g fill="#ffffff" fill-opacity="1"><g transform="translate(223.512979, 251.749992)"><g><path d="M 9.140625 -0.953125 L 9.140625 0 L 1.703125 0 L 1.703125 -10.5 L 8.90625 -10.5 L 8.90625 -9.546875 L 2.8125 -9.546875 L 2.8125 -5.8125 L 8.25 -5.8125 L 8.25 -4.859375 L 2.8125 -4.859375 L 2.8125 -0.953125 Z M 9.140625 -0.953125 "/></g></g></g><g fill="#ffffff" fill-opacity="1"><g transform="translate(233.547971, 251.749992)"><g><path d="M 10.484375 -10.5 L 10.484375 0 L 9.390625 0 L 9.390625 -4.84375 L 2.8125 -4.84375 L 2.8125 0 L 1.703125 0 L 1.703125 -10.5 L 2.8125 -10.5 L 2.8125 -5.8125 L 9.390625 -5.8125 L 9.390625 -10.5 Z M 10.484375 -10.5 "/></g></g></g><g fill="#ffffff" fill-opacity="1"><g transform="translate(245.742954, 251.749992)"><g><path d="M 6.296875 0.09375 C 5.253906 0.09375 4.3125 -0.140625 3.46875 -0.609375 C 2.625 -1.078125 1.960938 -1.710938 1.484375 -2.515625 C 1.015625 -3.328125 0.78125 -4.238281 0.78125 -5.25 C 0.78125 -6.257812 1.015625 -7.164062 1.484375 -7.96875 C 1.960938 -8.78125 2.625 -9.421875 3.46875 -9.890625 C 4.3125 -10.359375 5.253906 -10.59375 6.296875 -10.59375 C 7.335938 -10.59375 8.273438 -10.359375 9.109375 -9.890625 C 9.941406 -9.429688 10.597656 -8.796875 11.078125 -7.984375 C 11.566406 -7.171875 11.8125 -6.257812 11.8125 -5.25 C 11.8125 -4.238281 11.566406 -3.328125 11.078125 -2.515625 C 10.597656 -1.703125 9.941406 -1.0625 9.109375 -0.59375 C 8.273438 -0.132812 7.335938 0.09375 6.296875 0.09375 Z M 6.296875 -0.90625 C 7.128906 -0.90625 7.878906 -1.09375 8.546875 -1.46875 C 9.222656 -1.84375 9.75 -2.359375 10.125 -3.015625 C 10.5 -3.679688 10.6875 -4.425781 10.6875 -5.25 C 10.6875 -6.070312 10.5 -6.8125 10.125 -7.46875 C 9.75 -8.132812 9.222656 -8.65625 8.546875 -9.03125 C 7.878906 -9.40625 7.128906 -9.59375 6.296875 -9.59375 C 5.472656 -9.59375 4.722656 -9.40625 4.046875 -9.03125 C 3.367188 -8.65625 2.835938 -8.132812 2.453125 -7.46875 C 2.066406 -6.8125 1.875 -6.070312 1.875 -5.25 C 1.875 -4.425781 2.066406 -3.679688 2.453125 -3.015625 C 2.835938 -2.359375 3.367188 -1.84375 4.046875 -1.46875 C 4.722656 -1.09375 5.472656 -0.90625 6.296875 -0.90625 Z M 6.296875 -0.90625 "/></g></g></g><g fill="#ffffff" fill-opacity="1"><g transform="translate(258.327941, 251.749992)"><g><path d="M 5.9375 0.09375 C 4.582031 0.09375 3.523438 -0.296875 2.765625 -1.078125 C 2.003906 -1.859375 1.625 -2.992188 1.625 -4.484375 L 1.625 -10.5 L 2.734375 -10.5 L 2.734375 -4.53125 C 2.734375 -3.3125 3.003906 -2.398438 3.546875 -1.796875 C 4.097656 -1.203125 4.894531 -0.90625 5.9375 -0.90625 C 6.988281 -0.90625 7.789062 -1.203125 8.34375 -1.796875 C 8.894531 -2.398438 9.171875 -3.3125 9.171875 -4.53125 L 9.171875 -10.5 L 10.25 -10.5 L 10.25 -4.484375 C 10.25 -2.992188 9.867188 -1.859375 9.109375 -1.078125 C 8.359375 -0.296875 7.300781 0.09375 5.9375 0.09375 Z M 5.9375 0.09375 "/></g></g></g><g fill="#ffffff" fill-opacity="1"><g transform="translate(270.207927, 251.749992)"><g><path d="M 4.609375 0.09375 C 3.828125 0.09375 3.078125 -0.03125 2.359375 -0.28125 C 1.648438 -0.53125 1.097656 -0.863281 0.703125 -1.28125 L 1.140625 -2.125 C 1.515625 -1.75 2.015625 -1.441406 2.640625 -1.203125 C 3.273438 -0.972656 3.929688 -0.859375 4.609375 -0.859375 C 5.546875 -0.859375 6.25 -1.03125 6.71875 -1.375 C 7.1875 -1.71875 7.421875 -2.164062 7.421875 -2.71875 C 7.421875 -3.132812 7.289062 -3.46875 7.03125 -3.71875 C 6.78125 -3.96875 6.46875 -4.160156 6.09375 -4.296875 C 5.726562 -4.429688 5.21875 -4.578125 4.5625 -4.734375 C 3.769531 -4.941406 3.140625 -5.132812 2.671875 -5.3125 C 2.203125 -5.5 1.796875 -5.78125 1.453125 -6.15625 C 1.117188 -6.539062 0.953125 -7.054688 0.953125 -7.703125 C 0.953125 -8.234375 1.09375 -8.71875 1.375 -9.15625 C 1.65625 -9.59375 2.085938 -9.941406 2.671875 -10.203125 C 3.253906 -10.460938 3.972656 -10.59375 4.828125 -10.59375 C 5.429688 -10.59375 6.019531 -10.507812 6.59375 -10.34375 C 7.164062 -10.175781 7.660156 -9.945312 8.078125 -9.65625 L 7.703125 -8.78125 C 7.265625 -9.0625 6.796875 -9.273438 6.296875 -9.421875 C 5.796875 -9.566406 5.304688 -9.640625 4.828125 -9.640625 C 3.910156 -9.640625 3.21875 -9.460938 2.75 -9.109375 C 2.289062 -8.753906 2.0625 -8.296875 2.0625 -7.734375 C 2.0625 -7.316406 2.1875 -6.976562 2.4375 -6.71875 C 2.6875 -6.46875 3.003906 -6.273438 3.390625 -6.140625 C 3.773438 -6.003906 4.296875 -5.859375 4.953125 -5.703125 C 5.722656 -5.515625 6.34375 -5.328125 6.8125 -5.140625 C 7.289062 -4.953125 7.691406 -4.671875 8.015625 -4.296875 C 8.347656 -3.921875 8.515625 -3.414062 8.515625 -2.78125 C 8.515625 -2.25 8.375 -1.765625 8.09375 -1.328125 C 7.8125 -0.890625 7.375 -0.539062 6.78125 -0.28125 C 6.1875 -0.03125 5.460938 0.09375 4.609375 0.09375 Z M 4.609375 0.09375 "/></g></g></g><g fill="#ffffff" fill-opacity="1"><g transform="translate(279.432905, 251.749992)"><g><path d="M 9.140625 -0.953125 L 9.140625 0 L 1.703125 0 L 1.703125 -10.5 L 8.90625 -10.5 L 8.90625 -9.546875 L 2.8125 -9.546875 L 2.8125 -5.8125 L 8.25 -5.8125 L 8.25 -4.859375 L 2.8125 -4.859375 L 2.8125 -0.953125 Z M 9.140625 -0.953125 "/></g></g></g><g fill="#ffffff" fill-opacity="1"><g transform="translate(83.601561, 208.499986)"><g><path d="M 32.5 -63.703125 C 32.695312 -63.503906 32.664062 -63.269531 32.40625 -63 L 30 -61.40625 C 29.800781 -61.195312 29.566406 -61.226562 29.296875 -61.5 C 27.765625 -63.632812 25.429688 -64.703125 22.296875 -64.703125 C 19.828125 -64.703125 17.789062 -64 16.1875 -62.59375 C 14.59375 -61.195312 13.796875 -59.429688 13.796875 -57.296875 C 13.796875 -55.035156 14.226562 -53.050781 15.09375 -51.34375 C 15.96875 -49.644531 17.117188 -48.113281 18.546875 -46.75 C 19.984375 -45.382812 22.164062 -43.5 25.09375 -41.09375 C 28.363281 -38.425781 31.046875 -36.039062 33.140625 -33.9375 C 35.242188 -31.84375 37.0625 -29.3125 38.59375 -26.34375 C 40.132812 -23.382812 40.90625 -20.101562 40.90625 -16.5 C 40.90625 -13.300781 40.117188 -10.453125 38.546875 -7.953125 C 36.984375 -5.453125 34.832031 -3.5 32.09375 -2.09375 C 29.363281 -0.695312 26.265625 0 22.796875 0 C 19.066406 0 15.71875 -0.816406 12.75 -2.453125 C 9.78125 -4.085938 7.425781 -6.367188 5.6875 -9.296875 C 3.957031 -12.234375 3.0625 -15.566406 3 -19.296875 C 3 -19.628906 3.164062 -19.796875 3.5 -19.796875 L 6.296875 -19.796875 C 6.628906 -19.796875 6.796875 -19.628906 6.796875 -19.296875 C 6.867188 -14.703125 8.40625 -10.96875 11.40625 -8.09375 C 14.40625 -5.226562 18.203125 -3.796875 22.796875 -3.796875 C 27.066406 -3.796875 30.515625 -4.976562 33.140625 -7.34375 C 35.773438 -9.71875 37.09375 -12.769531 37.09375 -16.5 C 37.09375 -19.5625 36.425781 -22.328125 35.09375 -24.796875 C 33.757812 -27.265625 32.207031 -29.378906 30.4375 -31.140625 C 28.675781 -32.910156 26.097656 -35.226562 22.703125 -38.09375 C 19.503906 -40.757812 17.132812 -42.859375 15.59375 -44.390625 C 14.0625 -45.929688 12.742188 -47.765625 11.640625 -49.890625 C 10.546875 -52.023438 10 -54.492188 10 -57.296875 C 10 -60.492188 11.164062 -63.160156 13.5 -65.296875 C 15.832031 -67.429688 18.765625 -68.5 22.296875 -68.5 C 24.429688 -68.5 26.398438 -68.082031 28.203125 -67.25 C 30.003906 -66.414062 31.4375 -65.234375 32.5 -63.703125 Z M 32.5 -63.703125 "/></g></g></g><g fill="#ffffff" fill-opacity="1"><g transform="translate(127.499869, 208.499986)"><g><path d="M 21.5 -48.796875 C 25.5625 -48.796875 29.160156 -47.726562 32.296875 -45.59375 C 35.429688 -43.46875 37.863281 -40.488281 39.59375 -36.65625 C 41.332031 -32.820312 42.203125 -28.367188 42.203125 -23.296875 C 42.203125 -18.703125 41.332031 -14.65625 39.59375 -11.15625 C 37.863281 -7.65625 35.429688 -4.953125 32.296875 -3.046875 C 29.160156 -1.148438 25.5625 -0.203125 21.5 -0.203125 C 17.632812 -0.203125 14.234375 -1.148438 11.296875 -3.046875 C 8.367188 -4.953125 6.085938 -7.65625 4.453125 -11.15625 C 2.816406 -14.65625 2 -18.703125 2 -23.296875 C 2 -28.367188 2.816406 -32.820312 4.453125 -36.65625 C 6.085938 -40.488281 8.367188 -43.46875 11.296875 -45.59375 C 14.234375 -47.726562 17.632812 -48.796875 21.5 -48.796875 Z M 21.5 -45 C 18.363281 -45 15.613281 -44.097656 13.25 -42.296875 C 10.882812 -40.492188 9.050781 -37.941406 7.75 -34.640625 C 6.445312 -31.347656 5.796875 -27.566406 5.796875 -23.296875 C 5.796875 -17.492188 7.226562 -12.828125 10.09375 -9.296875 C 12.96875 -5.765625 16.769531 -4 21.5 -4 C 26.5625 -4 30.644531 -5.765625 33.75 -9.296875 C 36.851562 -12.828125 38.40625 -17.492188 38.40625 -23.296875 C 38.40625 -27.566406 37.703125 -31.347656 36.296875 -34.640625 C 34.898438 -37.941406 32.914062 -40.492188 30.34375 -42.296875 C 27.78125 -44.097656 24.832031 -45 21.5 -45 Z M 21.5 -45 "/></g></g></g><g fill="#ffffff" fill-opacity="1"><g transform="translate(171.698162, 208.499986)"><g><path d="M 46.59375 -48.796875 C 46.53125 -47.929688 46.5 -39.695312 46.5 -24.09375 C 46.5 -8.632812 46.53125 -0.570312 46.59375 0.09375 L 42.796875 0.09375 C 42.734375 -0.238281 42.703125 -3.269531 42.703125 -9 C 40.898438 -5.726562 38.546875 -3.191406 35.640625 -1.390625 C 32.742188 0.398438 29.460938 1.296875 25.796875 1.296875 C 17.066406 1.296875 10.914062 -1.648438 7.34375 -7.546875 C 3.78125 -13.453125 2 -22.003906 2 -33.203125 C 2 -38.335938 2.234375 -43.367188 2.703125 -48.296875 C 2.765625 -48.429688 2.863281 -48.566406 3 -48.703125 C 3.132812 -48.835938 3.269531 -48.867188 3.40625 -48.796875 L 6.09375 -48.296875 C 6.226562 -48.296875 6.328125 -48.226562 6.390625 -48.09375 C 6.460938 -47.96875 6.5 -47.835938 6.5 -47.703125 C 5.96875 -41.628906 5.703125 -36.394531 5.703125 -32 C 5.703125 -22.195312 7.21875 -14.828125 10.25 -9.890625 C 13.28125 -4.960938 18.460938 -2.5 25.796875 -2.5 C 30.660156 -2.5 34.609375 -4.378906 37.640625 -8.140625 C 40.679688 -11.910156 42.367188 -16.960938 42.703125 -23.296875 L 42.703125 -33.59375 C 42.703125 -43.195312 42.734375 -48.265625 42.796875 -48.796875 Z M 46.59375 -48.796875 "/></g></g></g><g fill="#ffffff" fill-opacity="1"><g transform="translate(220.296285, 208.499986)"><g><path d="M 1.796875 -15.59375 C 1.796875 -36.59375 1.894531 -54.394531 2.09375 -69 L 6.296875 -68.5 C 5.703125 -49.5 5.40625 -33.03125 5.40625 -19.09375 C 5.40625 -13.425781 5.46875 -7.0625 5.59375 0 L 1.796875 0.296875 Z M 1.796875 -15.59375 "/></g></g></g><g fill="#ffffff" fill-opacity="1"><g transform="translate(228.595963, 208.499986)"><g><path d="M 28.703125 15.796875 C 28.960938 15.867188 29.09375 16.070312 29.09375 16.40625 L 28.703125 19.203125 C 28.703125 19.335938 28.632812 19.453125 28.5 19.546875 C 28.363281 19.648438 28.226562 19.664062 28.09375 19.59375 C 19.425781 18.132812 13.226562 13.550781 9.5 5.84375 C 5.769531 -1.851562 3.90625 -12.332031 3.90625 -25.59375 C 3.90625 -31.59375 4.203125 -37.992188 4.796875 -44.796875 L 2 -44.703125 L 2 -48.5 L 5.203125 -48.59375 C 5.535156 -52.863281 6.101562 -57.832031 6.90625 -63.5 C 7.03125 -64.101562 7.226562 -64.367188 7.5 -64.296875 L 10.296875 -63.90625 C 10.628906 -63.769531 10.765625 -63.566406 10.703125 -63.296875 C 10.367188 -60.703125 10.082031 -58.367188 9.84375 -56.296875 C 9.613281 -54.234375 9.398438 -52.398438 9.203125 -50.796875 C 9.203125 -50.265625 9.132812 -49.53125 9 -48.59375 L 12.90625 -48.59375 C 16.695312 -48.59375 18.796875 -48.5625 19.203125 -48.5 L 19.203125 -44.703125 C 18.796875 -44.765625 16.628906 -44.796875 12.703125 -44.796875 L 8.703125 -44.796875 C 8.035156 -36.796875 7.703125 -30.265625 7.703125 -25.203125 C 7.703125 -12.128906 9.398438 -2.34375 12.796875 4.15625 C 16.203125 10.65625 21.503906 14.535156 28.703125 15.796875 Z M 28.703125 15.796875 "/></g></g></g><g fill="#ffffff" fill-opacity="1"><g transform="translate(259.694766, 208.499986)"><g><path d="M 22.09375 -47.5 C 22.164062 -47.4375 22.148438 -47.335938 22.046875 -47.203125 C 21.953125 -47.066406 21.835938 -46.96875 21.703125 -46.90625 C 16.566406 -45.632812 12.710938 -43.148438 10.140625 -39.453125 C 7.578125 -35.753906 6.164062 -30.503906 5.90625 -23.703125 C 5.90625 -8.703125 5.867188 -0.800781 5.796875 0 L 2 0 C 2.132812 -1.863281 2.203125 -10.128906 2.203125 -24.796875 C 2.203125 -39.660156 2.132812 -47.695312 2 -48.90625 L 5.796875 -48.90625 C 5.867188 -48.570312 5.90625 -45.46875 5.90625 -39.59375 C 8.96875 -45.195312 13.96875 -48.898438 20.90625 -50.703125 C 21.238281 -50.703125 21.4375 -50.566406 21.5 -50.296875 Z M 22.09375 -47.5 "/></g></g></g><g fill="#ffffff" fill-opacity="1"><g transform="translate(283.793824, 208.499986)"><g><path d="M 4.5 -52.296875 C 5.164062 -52.492188 5.679688 -52.875 6.046875 -53.4375 C 6.410156 -54.007812 6.59375 -54.628906 6.59375 -55.296875 C 6.59375 -56.160156 6.273438 -56.910156 5.640625 -57.546875 C 5.015625 -58.179688 4.332031 -58.5 3.59375 -58.5 C 2.800781 -58.5 2.171875 -58.234375 1.703125 -57.703125 C 1.234375 -57.171875 1 -56.503906 1 -55.703125 C 1 -54.703125 1.347656 -53.816406 2.046875 -53.046875 C 2.742188 -52.285156 3.5625 -52.035156 4.5 -52.296875 Z M 2.203125 0 C 2.335938 -1.863281 2.40625 -10.128906 2.40625 -24.796875 C 2.40625 -39.660156 2.335938 -47.695312 2.203125 -48.90625 L 6 -48.90625 C 6.132812 -47.570312 6.203125 -39.46875 6.203125 -24.59375 C 6.203125 -9.800781 6.132812 -1.601562 6 0 Z M 2.203125 0 "/></g></g></g></svg>